<?xml version="1.0" standalone="no"?>
<!DOCTYPE svg PUBLIC "-//W3C//DTD SVG 20010904//EN"
 "http://www.w3.org/TR/2001/REC-SVG-20010904/DTD/svg10.dtd">
<svg version="1.0" xmlns="http://www.w3.org/2000/svg"
 width="1500.000000pt" height="1500.000000pt" viewBox="0 0 1500.000000 1500.000000"
 preserveAspectRatio="xMidYMid meet">
<metadata>
Created by potrace 1.14, written by Peter Selinger 2001-2017
</metadata>
<g transform="translate(0.000000,1500.000000) scale(0.100000,-0.100000)"
fill="#000000" stroke="none">
<path d="M7797 14504 c-1 -1 -81 -4 -177 -8 -96 -3 -186 -8 -200 -10 -59 -11
-171 -17 -415 -21 -395 -7 -523 -14 -563 -31 -27 -11 -69 -14 -166 -12 -117 3
-136 1 -176 -19 -76 -36 -90 -38 -280 -38 l-185 0 -60 -37 c-70 -43 -128 -59
-320 -88 -161 -24 -214 -36 -235 -55 -8 -7 -27 -16 -42 -19 -16 -3 -38 -8 -51
-11 -13 -2 -47 -27 -77 -55 -62 -57 -117 -90 -153 -90 -35 0 -99 -24 -145 -55
-22 -15 -59 -29 -81 -32 -40 -5 -61 -22 -139 -106 -22 -25 -45 -38 -70 -42
-20 -3 -51 -8 -68 -11 -40 -6 -84 -46 -84 -77 0 -48 -21 -60 -111 -64 -167 -8
-219 -30 -219 -90 0 -36 -31 -59 -89 -66 -68 -8 -139 -49 -147 -85 -14 -56
-48 -80 -131 -88 -61 -7 -97 -29 -109 -68 -9 -31 -35 -56 -56 -56 -11 0 -43
-24 -72 -52 -80 -81 -89 -87 -146 -98 -74 -14 -136 -52 -150 -92 -13 -40 -79
-92 -186 -149 -89 -48 -119 -72 -140 -112 -10 -18 -26 -30 -46 -34 -20 -4 -55
-30 -97 -71 -36 -35 -86 -74 -111 -85 -60 -27 -69 -38 -80 -98 -12 -64 -29
-90 -73 -118 -19 -11 -46 -43 -61 -72 -20 -35 -44 -61 -80 -84 -68 -43 -78
-56 -87 -118 -10 -61 -21 -70 -117 -103 -72 -24 -122 -68 -122 -108 0 -31 -44
-86 -102 -125 -85 -59 -168 -187 -168 -260 0 -34 -54 -118 -112 -176 -82 -82
-93 -109 -102 -253 -5 -77 -29 -118 -117 -193 -141 -123 -166 -156 -181 -240
-9 -53 -17 -68 -59 -110 -31 -31 -50 -60 -54 -81 -3 -18 -7 -42 -9 -53 -6 -38
-35 -90 -75 -135 -44 -49 -66 -94 -76 -154 -5 -29 -19 -51 -55 -86 -54 -52
-57 -61 -64 -205 -4 -67 -10 -96 -25 -116 -25 -34 -34 -71 -66 -256 -29 -173
-34 -189 -76 -248 -23 -32 -33 -60 -40 -115 -6 -41 -23 -109 -39 -152 -26 -72
-35 -106 -45 -178 -2 -14 -4 -75 -5 -136 -3 -150 -14 -200 -65 -308 -43 -90
-49 -113 -60 -231 -6 -58 -30 -149 -45 -170 -27 -36 -38 -163 -25 -270 12 -98
16 -163 20 -370 4 -229 9 -279 40 -365 33 -91 42 -180 50 -475 5 -172 7 -198
27 -270 20 -78 35 -193 53 -410 20 -234 32 -289 74 -338 50 -57 63 -99 76
-232 7 -82 21 -140 40 -169 8 -12 17 -62 20 -116 10 -161 29 -224 133 -440 33
-69 67 -147 77 -175 17 -53 39 -85 100 -150 21 -22 61 -71 90 -110 71 -95 103
-121 172 -140 32 -9 57 -56 93 -175 107 -351 133 -415 178 -450 13 -11 36 -20
49 -20 37 0 77 -25 104 -65 13 -20 42 -46 64 -57 51 -26 99 -65 210 -173 250
-241 379 -334 464 -336 20 0 51 -6 69 -12 58 -21 144 -119 188 -212 23 -49
270 -301 373 -379 40 -31 82 -56 93 -56 30 0 105 -41 180 -98 37 -28 112 -74
165 -102 56 -29 175 -108 278 -185 235 -176 292 -204 431 -216 124 -9 137 -13
190 -51 29 -20 60 -32 106 -38 37 -6 97 -25 139 -45 72 -34 91 -38 210 -49 32
-3 74 -16 100 -30 51 -29 220 -72 317 -82 81 -7 102 -18 167 -82 77 -75 150
-97 335 -98 137 -1 231 -7 310 -20 47 -7 87 -11 200 -19 52 -3 108 -8 123 -10
15 -2 60 -6 100 -10 40 -4 81 -9 91 -11 11 -2 42 -6 70 -9 28 -3 62 -7 76 -10
14 -3 41 -7 60 -10 129 -21 195 -40 300 -90 63 -30 142 -61 175 -68 69 -15
212 -14 300 2 33 6 72 13 86 16 14 3 60 16 101 29 180 59 266 72 338 51 48
-15 398 -13 474 2 165 33 165 33 266 6 95 -25 189 -31 283 -18 23 3 59 8 80
10 82 11 125 17 187 26 36 6 79 13 95 16 17 2 49 13 71 24 23 11 66 24 95 29
68 11 102 24 142 54 52 39 108 58 185 62 39 2 99 10 131 19 32 8 70 15 84 15
13 0 42 8 63 17 22 9 45 18 52 19 6 1 42 30 80 65 37 34 91 72 122 86 30 13
69 30 85 38 55 27 109 41 160 44 28 1 74 11 102 21 54 20 60 22 173 39 42 7
78 20 105 39 53 38 62 41 153 47 123 10 140 13 215 49 83 38 234 144 355 246
66 56 151 112 198 129 31 12 92 47 135 77 86 60 172 104 207 104 29 0 94 33
124 63 21 21 116 125 249 271 47 52 124 143 192 228 51 64 88 88 144 94 107
12 132 27 277 169 49 48 103 93 120 100 33 14 117 85 227 192 82 81 196 166
253 192 74 32 121 130 200 419 58 209 62 216 148 256 82 38 119 72 143 134 10
23 20 42 24 42 7 0 49 39 71 66 68 85 194 333 239 470 27 83 33 114 47 244 7
70 25 143 40 167 14 22 21 64 28 178 4 58 13 85 51 158 43 84 65 159 79 272 4
28 9 64 11 80 4 30 13 106 20 180 4 38 17 135 20 145 1 3 5 28 10 55 4 28 11
55 15 60 16 22 22 78 26 255 6 296 14 366 60 498 24 69 25 87 29 325 2 139 6
263 8 277 17 86 23 248 12 304 -3 16 -14 45 -24 65 -30 58 -54 150 -52 204 1
41 -6 85 -23 142 -1 6 -17 41 -36 79 -44 91 -50 120 -56 261 -4 104 -15 213
-27 265 -1 8 -15 47 -29 85 -15 39 -31 102 -36 140 -6 46 -23 98 -46 147 -28
58 -39 96 -45 157 -5 50 -15 88 -24 99 -25 28 -35 62 -67 249 -37 221 -55 275
-101 323 -21 21 -40 52 -43 69 -3 17 -9 44 -12 60 -3 16 -26 51 -50 78 -68 72
-85 98 -90 145 -7 56 -29 107 -63 143 -35 37 -52 69 -58 109 -12 85 -18 94
-161 224 -116 106 -131 130 -138 223 -10 132 -9 129 -138 292 -29 37 -59 87
-65 110 -7 23 -17 58 -23 77 -12 41 -47 85 -151 194 -41 43 -86 99 -99 124
-25 51 -48 74 -93 95 -133 62 -134 64 -150 143 -7 37 -36 66 -85 86 -42 18
-57 35 -90 101 -17 34 -36 57 -59 69 -52 26 -63 42 -68 90 -6 58 -24 83 -82
112 -27 14 -60 40 -75 58 -52 63 -68 78 -95 84 -48 9 -76 30 -100 73 -18 34
-36 49 -78 68 -30 14 -74 40 -99 59 -25 19 -61 40 -80 47 -24 8 -45 28 -67 62
-32 50 -64 72 -115 81 -29 6 -102 44 -102 54 0 16 -87 99 -110 104 -14 3 -52
30 -85 61 -60 55 -109 85 -139 85 -35 0 -69 26 -92 72 -30 58 -55 76 -114 79
-76 4 -98 17 -125 69 -33 65 -52 77 -133 79 -143 5 -184 19 -196 66 -15 61
-91 115 -161 115 -47 0 -81 24 -95 64 -11 34 -43 56 -83 56 -21 1 -62 20 -177
83 -27 15 -71 30 -98 33 -76 9 -102 23 -118 64 -15 38 -36 54 -88 65 -16 3
-48 15 -70 27 -70 34 -183 61 -306 73 -62 6 -133 15 -155 19 -64 14 -84 21
-105 41 -39 35 -87 45 -310 60 -41 3 -84 7 -95 9 -11 2 -54 7 -95 11 -41 4
-84 9 -95 11 -11 2 -40 6 -65 9 -25 3 -81 10 -125 15 -44 5 -111 11 -150 14
-106 8 -702 24 -708 20z m-22 -168 c25 -31 34 -32 82 -6 48 26 54 25 89 -5 46
-41 66 -41 137 -1 73 41 89 43 148 17 46 -21 51 -21 133 5 l56 18 70 -37 c81
-42 105 -45 185 -17 85 29 122 26 173 -15 76 -60 109 -64 295 -31 104 18 131
14 177 -28 22 -20 43 -36 48 -37 4 0 18 -2 32 -4 14 -2 53 -6 86 -9 37 -3 80
-15 107 -29 34 -19 62 -24 123 -26 89 -2 141 -15 164 -42 10 -12 32 -19 65
-21 53 -4 61 -12 82 -83 11 -38 48 -56 127 -62 129 -8 147 -13 182 -49 33 -32
46 -38 104 -48 46 -8 59 -18 90 -68 35 -57 71 -76 150 -79 66 -3 90 -24 90
-76 0 -66 11 -72 150 -74 125 -3 134 -7 127 -70 -6 -56 8 -78 51 -80 15 -1 43
-3 62 -5 19 -2 57 -5 83 -8 59 -6 73 -16 81 -61 8 -43 38 -64 134 -94 73 -23
108 -52 97 -82 -10 -26 18 -48 71 -53 94 -10 115 -25 133 -92 12 -46 24 -54
82 -54 61 0 105 -23 128 -67 24 -46 57 -83 76 -83 7 0 53 -27 102 -60 48 -33
95 -60 104 -60 20 0 41 -24 64 -72 17 -37 19 -38 107 -53 29 -4 42 -13 53 -35
9 -17 13 -30 10 -30 -3 0 1 -13 10 -29 16 -32 49 -48 107 -50 9 -1 24 -8 32
-17 15 -15 15 -25 1 -110 -2 -11 0 -25 3 -31 9 -13 67 -43 84 -43 31 -1 43
-20 43 -72 l0 -52 50 -19 c125 -48 129 -51 139 -136 7 -60 22 -79 69 -91 100
-27 131 -44 150 -83 10 -21 62 -82 116 -135 119 -117 138 -145 151 -213 11
-60 40 -112 103 -190 87 -109 92 -118 94 -194 3 -131 90 -263 234 -356 55 -35
79 -71 79 -121 0 -39 29 -107 55 -128 26 -22 65 -110 65 -148 0 -51 28 -99 76
-134 39 -28 74 -79 74 -107 0 -18 -15 -13 -56 22 -21 18 -53 39 -71 46 -17 7
-69 44 -115 83 -93 78 -173 128 -204 128 -48 0 -119 -105 -112 -167 4 -31 -1
-39 -44 -74 -33 -28 -49 -50 -53 -72 -3 -18 -7 -45 -9 -60 -6 -37 -25 -92 -42
-125 -18 -35 -18 -61 2 -118 23 -68 20 -105 -12 -160 -27 -46 -28 -54 -30
-188 -1 -78 -2 -147 -3 -155 0 -8 -27 -39 -59 -70 -69 -67 -88 -94 -96 -143
-4 -23 -17 -44 -34 -57 -24 -19 -25 -22 -11 -34 31 -24 41 -59 41 -151 1 -99
-21 -206 -51 -246 -39 -54 -53 -95 -58 -171 -7 -96 7 -156 53 -232 45 -73 43
-95 -21 -262 -64 -169 -85 -199 -185 -268 -97 -66 -137 -102 -146 -131 -11
-38 -36 -55 -107 -78 -52 -16 -79 -32 -107 -61 -45 -46 -82 -67 -120 -67 -15
0 -39 -9 -53 -20 -44 -35 -60 -77 -63 -171 -3 -95 9 -156 57 -275 36 -90 40
-130 21 -204 -19 -74 -46 -125 -93 -174 -22 -22 -43 -52 -46 -66 -11 -43 -35
-71 -89 -102 -62 -35 -109 -80 -127 -122 -19 -48 -77 -157 -90 -171 -7 -8 -23
-28 -37 -47 -14 -18 -48 -58 -76 -88 -121 -131 -161 -180 -183 -225 -19 -39
-48 -66 -104 -95 -44 -22 -86 -76 -98 -127 -13 -48 -61 -113 -85 -113 -14 0
-64 -60 -64 -77 0 -18 -45 -52 -103 -78 -85 -37 -166 -40 -253 -8 -50 18 -93
26 -154 28 -96 3 -134 17 -190 72 -47 46 -98 71 -134 66 -42 -6 -70 3 -106 34
-30 24 -61 31 -100 20 -75 -20 -201 -88 -241 -129 -20 -21 -40 -38 -43 -38 -4
0 -23 34 -43 75 -39 82 -95 145 -155 176 -56 28 -135 47 -273 64 -92 12 -107
23 -57 44 35 15 70 66 75 111 3 19 8 43 12 52 18 43 96 34 250 -29 324 -132
368 -142 680 -148 267 -6 438 19 635 93 460 171 807 535 788 826 -7 118 -61
182 -148 178 -28 -1 -50 1 -51 5 0 5 -2 17 -4 28 -2 11 -6 38 -10 60 -8 51
-45 99 -98 127 -36 19 -56 22 -136 21 l-94 -2 -31 34 c-17 19 -46 52 -64 74
-39 47 -80 70 -138 78 -95 13 -129 -22 -199 -200 -21 -54 -60 -133 -87 -174
-59 -90 -189 -222 -272 -278 -55 -35 -179 -90 -230 -101 -92 -20 -124 -23
-221 -20 -165 4 -226 40 -256 150 -38 139 -1 322 120 596 28 63 51 126 51 139
0 47 -39 110 -86 137 -88 51 -199 27 -314 -70 -30 -25 -58 -46 -61 -46 -3 0
-23 25 -43 55 -49 70 -104 95 -174 76 -221 -59 -329 -392 -246 -761 31 -140
74 -244 164 -396 27 -45 56 -96 64 -113 l16 -30 -79 6 c-70 5 -83 3 -119 -17
-40 -22 -72 -69 -72 -105 0 -45 -72 -117 -100 -100 -5 3 -8 40 -5 83 3 42 7
131 10 197 3 66 8 158 11 205 7 118 7 658 0 755 -19 254 -29 304 -72 348 -46
47 -168 109 -289 146 -55 17 -111 32 -125 35 -14 2 -45 9 -70 15 -25 5 -61 13
-80 16 -158 26 -197 32 -290 40 -30 3 -75 8 -100 11 -73 9 -639 12 -715 4 -38
-4 -107 -11 -151 -14 -45 -4 -93 -9 -105 -11 -22 -3 -66 -9 -159 -21 -19 -3
-46 -7 -60 -10 -14 -3 -36 -8 -50 -10 -117 -19 -339 -78 -416 -110 -211 -87
-283 -155 -304 -290 -10 -61 -7 -296 5 -374 2 -14 7 -70 10 -124 5 -93 8 -122
20 -271 18 -227 28 -376 29 -435 l1 -55 -58 -1 c-59 -1 -205 42 -317 94 -25
11 -85 39 -134 61 l-88 41 63 71 c262 290 344 551 283 899 -22 130 -95 246
-215 343 -85 68 -165 84 -244 48 -62 -28 -80 -54 -80 -117 0 -30 -2 -54 -5
-54 -3 0 -40 34 -82 74 -57 54 -93 80 -133 95 -64 24 -67 24 -118 10 -45 -12
-73 -40 -98 -95 -37 -81 -32 -114 39 -266 76 -160 79 -169 94 -238 49 -223
-56 -408 -272 -479 -104 -35 -239 -28 -325 16 -120 63 -289 372 -310 570 -12
111 -53 190 -123 238 -48 33 -80 32 -128 -4 -109 -80 -125 -119 -130 -315 -2
-82 -5 -151 -8 -153 -2 -2 -37 47 -78 109 -82 124 -137 187 -184 211 -139 72
-270 -46 -249 -224 7 -62 6 -64 -40 -60 -126 9 -168 -4 -205 -64 -58 -94 -14
-267 111 -436 115 -155 353 -344 554 -438 252 -119 444 -162 725 -164 191 -2
273 4 395 27 117 23 110 22 242 55 157 40 217 45 263 21 166 -83 233 -115 317
-150 54 -23 103 -46 108 -51 7 -7 0 -18 -20 -35 -16 -13 -33 -24 -37 -24 -5 0
-42 -16 -84 -35 -41 -19 -77 -35 -79 -35 -2 0 -39 -17 -82 -37 -175 -83 -308
-200 -334 -295 -15 -55 -5 -221 18 -303 30 -107 121 -179 410 -324 168 -84
315 -145 461 -192 206 -65 244 -87 227 -130 -3 -8 -25 -25 -50 -38 -51 -27
-99 -69 -143 -127 -41 -53 -80 -63 -226 -59 -124 3 -147 7 -184 31 -18 12 -49
17 -101 18 -51 1 -76 5 -79 14 -6 20 -99 63 -145 66 -23 2 -51 -1 -61 -6 -31
-17 -145 -11 -230 11 -154 40 -223 87 -271 180 -24 49 -75 101 -135 138 -39
25 -73 65 -114 136 -34 57 -96 113 -137 121 -43 8 -127 65 -204 137 -107 101
-171 143 -236 154 -107 18 -150 39 -178 86 -25 41 -71 89 -192 199 -57 52
-148 138 -202 190 -103 101 -162 140 -208 140 -44 0 -81 43 -140 160 -45 91
-105 176 -192 276 -12 14 -98 103 -192 198 -309 313 -384 404 -470 569 -94
182 -137 240 -201 267 -34 15 -52 33 -81 80 -30 47 -49 66 -90 86 -97 50 -172
148 -190 249 -20 113 4 269 48 320 36 41 36 45 1 45 -44 0 -66 31 -58 81 8 53
33 100 91 174 50 64 69 101 59 116 -8 14 -53 -16 -94 -65 -59 -69 -117 -126
-128 -126 -6 0 -16 17 -23 38 -27 85 -126 203 -187 223 -56 18 -152 6 -228
-30 -122 -57 -202 -132 -277 -261 -27 -47 -71 -110 -96 -140 -116 -136 -163
-208 -175 -267 -4 -17 -33 -61 -67 -99 -32 -37 -59 -73 -59 -80 0 -25 -69 -90
-124 -117 -30 -15 -57 -27 -61 -27 -3 0 -3 22 1 49 6 43 4 49 -15 54 -26 6
-26 4 -20 239 2 76 -1 101 -14 122 -15 23 -16 29 -2 70 8 24 35 81 59 127 56
108 61 130 36 162 -11 14 -20 32 -20 40 0 7 25 63 55 123 61 122 73 165 50
184 -40 33 -24 145 25 182 35 26 37 36 10 88 -25 50 -25 77 0 115 35 50 49 93
59 173 11 89 17 108 36 116 15 5 22 37 29 131 5 66 14 97 51 165 13 25 26 59
29 75 2 17 7 49 11 73 5 31 17 53 42 77 20 19 39 35 43 35 10 0 30 47 30 70 0
11 -12 25 -27 32 -25 12 -28 19 -27 62 0 41 5 52 28 70 68 51 86 74 86 108 0
62 21 108 75 169 56 62 69 91 80 172 5 40 14 56 51 92 46 45 64 80 64 119 0
47 54 124 173 243 133 133 153 166 142 228 -15 94 -2 132 79 225 71 80 102
134 116 196 15 65 40 100 158 220 62 64 104 115 111 137 13 38 38 53 106 62
54 8 85 24 90 49 2 12 9 47 15 79 12 60 32 80 91 90 65 12 91 21 103 39 14 20
15 24 1 72 -10 38 13 56 71 56 58 0 68 16 60 92 -3 35 -3 68 1 74 12 16 43 31
85 38 38 7 68 36 68 66 0 23 42 60 75 66 59 11 94 32 100 61 15 68 19 72 87
87 15 3 42 22 60 41 26 28 44 37 87 44 60 9 75 23 93 84 14 46 48 67 110 67
55 0 80 18 113 79 29 53 57 71 111 71 39 0 75 30 106 88 18 34 75 66 134 75
35 5 75 24 86 40 3 6 4 25 1 43 -6 39 10 50 82 53 160 5 228 43 194 108 -19
35 -6 40 119 42 124 2 148 12 157 68 14 85 27 96 129 107 70 7 106 27 106 59
0 42 23 60 80 65 75 5 96 16 103 50 8 41 57 61 164 68 47 4 92 7 99 8 18 3 54
37 54 51 0 23 52 65 80 65 15 0 38 8 51 19 32 25 81 37 159 40 85 2 131 11
150 26 24 20 71 32 136 34 99 4 124 13 124 47 0 13 8 27 18 32 18 10 35 9 228
-3 143 -8 168 -4 213 35 28 25 59 36 92 32 4 -1 58 -4 120 -8 105 -6 117 -5
156 15 47 25 47 25 166 15 83 -7 90 -6 120 16 l31 24 68 -37 c77 -42 103 -45
158 -17 52 26 72 25 121 -7 l41 -27 17 21 c23 27 52 36 131 38 36 1 74 7 86
13 16 8 26 7 49 -8 28 -19 29 -19 73 7 102 60 179 66 217 19z m1702 -8523 c22
-32 62 -98 88 -147 l48 -89 -34 -29 c-57 -49 -151 -118 -160 -118 -14 0 -82
109 -134 214 l-49 98 39 35 c55 48 126 93 146 93 9 0 34 -26 56 -57z m-693
-1797 c-16 -431 -271 -825 -635 -981 -99 -43 -222 -80 -299 -90 -30 -4 -64 -9
-75 -11 -29 -6 -244 -5 -280 1 -56 9 -100 17 -121 21 -73 14 -214 62 -306 106
-60 28 -108 54 -108 57 0 3 -13 12 -28 19 -16 6 -37 20 -48 30 -10 9 -51 43
-90 74 -85 69 -222 210 -285 293 -25 33 -59 89 -76 125 -60 126 -124 341 -115
383 5 22 13 21 205 -30 147 -39 169 -38 175 5 5 31 40 54 63 41 25 -13 45 -56
48 -104 3 -51 38 -123 73 -149 34 -24 118 -32 178 -16 55 15 115 74 124 122 3
19 15 44 27 56 20 22 38 29 40 15 8 -76 12 -78 242 -80 307 -2 417 20 432 87
4 16 12 30 19 30 25 0 69 -55 103 -127 18 -40 45 -81 60 -93 45 -35 150 -23
201 24 38 34 52 71 63 162 10 92 24 124 52 124 20 0 34 -29 38 -81 4 -50 8
-52 36 -19 29 35 144 93 224 114 l54 13 6 -26 c3 -14 4 -57 3 -95z"/>
<path d="M8318 13249 c-139 -22 -262 -100 -242 -154 9 -22 37 -11 97 37 56 44
71 38 55 -19 -5 -19 -7 -42 -4 -50 7 -16 16 -16 190 11 106 16 246 20 264 8 8
-5 19 -20 26 -33 6 -13 22 -25 34 -27 41 -6 166 85 207 151 17 27 17 27 -6 27
-12 0 -53 -22 -91 -50 -69 -50 -88 -59 -88 -40 0 15 -40 28 -98 33 -51 5 -92
21 -92 37 0 18 -38 10 -112 -24 -40 -18 -86 -37 -103 -40 -27 -7 -28 -6 -15 8
8 8 51 37 94 63 44 26 79 53 78 58 -2 12 -128 15 -194 4z"/>
<path d="M6253 12982 c-35 -5 -33 -26 6 -78 49 -65 85 -72 107 -19 8 21 17 36
19 34 1 -2 19 -32 39 -65 19 -34 43 -65 52 -68 16 -6 43 18 44 39 0 6 9 25 21
44 l20 33 24 -22 c13 -12 35 -45 50 -74 46 -92 82 -119 105 -77 5 11 10 37 10
58 0 76 15 70 65 -23 27 -49 55 -97 63 -106 33 -39 57 29 30 87 -6 14 -14 25
-18 25 -11 0 -60 78 -60 95 0 24 -46 65 -73 65 -13 0 -32 -9 -42 -20 -25 -27
-48 -25 -87 9 -48 41 -70 45 -117 21 -51 -25 -55 -25 -71 4 -7 14 -24 28 -39
32 -29 8 -114 11 -148 6z"/>
<path d="M5988 12950 c-21 -13 -25 -69 -5 -71 6 -1 37 -2 67 -3 43 -1 65 -8
104 -34 46 -30 96 -42 96 -24 0 19 -63 80 -108 105 -56 30 -128 43 -154 27z"/>
<path d="M6984 12803 c9 -64 14 -83 38 -125 35 -64 52 -62 45 3 -9 91 -41 159
-74 159 -10 0 -12 -10 -9 -37z"/>
<path d="M5050 12681 c0 -30 122 -117 185 -131 37 -8 49 -1 39 23 -9 25 -224
128 -224 108z"/>
<path d="M4864 12585 c-8 -21 7 -37 60 -64 54 -27 116 -39 116 -22 0 6 -15 25
-32 42 -55 53 -132 76 -144 44z"/>
<path d="M4695 12466 c-36 -27 -5 -41 90 -41 91 0 108 7 82 32 -24 24 -144 30
-172 9z"/>
<path d="M10390 12409 c-19 -4 -48 -9 -65 -12 -92 -15 -110 -20 -90 -27 25 -9
224 -5 248 5 20 8 23 34 5 36 -43 5 -67 4 -98 -2z"/>
<path d="M4483 12323 c-24 -9 -13 -22 42 -48 30 -14 55 -27 55 -28 0 -1 -15
-3 -33 -4 -58 -5 -93 -17 -209 -75 -106 -53 -164 -96 -150 -110 8 -8 61 12
217 80 51 23 74 26 157 27 57 0 102 5 108 11 6 6 10 35 8 65 -3 47 -6 55 -29
66 -27 13 -144 24 -166 16z"/>
<path d="M10445 12249 c69 -70 100 -91 153 -101 25 -4 56 -18 69 -30 19 -18
28 -20 41 -12 42 27 6 74 -58 76 -34 1 -60 29 -60 65 0 41 -25 53 -113 53
l-81 0 49 -51z"/>
<path d="M2450 11629 c-46 -11 -74 -17 -127 -25 -63 -9 -45 -17 47 -20 97 -3
153 10 148 34 -4 20 -21 23 -68 11z"/>
<path d="M9220 11515 c-61 -22 -179 -98 -237 -154 -24 -23 -28 -33 -16 -44 13
-14 255 133 293 178 20 24 0 35 -40 20z"/>
<path d="M8855 11498 c-16 -12 -58 -49 -93 -82 -105 -101 -118 -153 -21 -85
57 40 169 156 169 175 0 20 -20 17 -55 -8z"/>
<path d="M2175 11449 c-33 -3 -53 -7 -45 -9 31 -6 158 -6 176 1 28 10 -59 15
-131 8z"/>
<path d="M9424 11446 c-67 -21 -121 -57 -140 -92 -10 -18 -15 -36 -12 -39 3
-3 25 7 49 23 24 16 79 46 122 67 100 48 88 74 -19 41z"/>
<path d="M9638 11359 c-134 -65 -185 -115 -105 -102 83 13 217 82 217 112 0
33 -27 31 -112 -10z"/>
<path d="M9855 11331 c-63 -16 -135 -62 -135 -88 0 -28 32 -24 105 11 41 20
82 36 90 36 26 0 90 -73 103 -118 11 -36 17 -43 35 -40 43 6 35 64 -19 126
-54 64 -115 88 -179 73z"/>
<path d="M2070 11303 c-60 -20 -120 -62 -120 -83 0 -6 9 -15 20 -22 34 -22 23
-34 -50 -57 -80 -25 -134 -65 -111 -80 26 -17 176 39 224 83 22 20 26 30 20
56 -7 37 6 50 53 50 36 0 81 31 70 48 -7 12 -77 15 -106 5z"/>
<path d="M3905 11298 c-11 -6 -24 -17 -28 -25 -12 -19 -82 -53 -112 -53 -25 0
-30 -10 -26 -52 3 -25 -25 -35 -107 -40 -78 -5 -105 -19 -84 -40 13 -13 179
-22 207 -12 8 3 19 21 25 40 9 27 19 36 43 41 39 8 137 103 137 132 0 24 -23
27 -55 9z"/>
<path d="M3725 11028 c-22 -4 -44 -10 -50 -11 -5 -2 -25 -7 -44 -11 -84 -20
-181 -84 -181 -120 0 -23 42 -20 68 4 33 31 121 58 273 85 18 3 41 11 52 16
17 10 18 13 4 26 -18 18 -68 23 -122 11z"/>
<path d="M1865 10987 c-78 -37 -205 -193 -205 -254 0 -20 2 -21 31 -11 45 16
148 117 153 151 6 33 23 57 42 57 24 0 68 46 61 63 -8 22 -22 21 -82 -6z"/>
<path d="M1800 10703 c-41 -14 -100 -49 -145 -87 -78 -64 -185 -175 -185 -191
0 -45 54 -15 152 83 56 57 101 90 169 127 105 57 121 75 62 74 -21 0 -45 -3
-53 -6z"/>
<path d="M13350 10145 c0 -43 88 -125 135 -125 30 0 14 32 -45 91 -65 64 -90
74 -90 34z"/>
<path d="M10333 10128 c-49 -11 -55 -24 -15 -35 46 -13 443 -8 477 6 29 12 29
13 10 24 -25 15 -412 19 -472 5z"/>
<path d="M12785 10119 c-9 -14 28 -52 91 -94 65 -44 142 -112 148 -133 8 -25
46 -46 59 -33 34 34 -109 183 -243 251 -46 23 -47 23 -55 9z"/>
<path d="M13143 10082 c-40 -13 -73 -29 -73 -36 0 -16 45 -58 90 -85 67 -40
96 -17 40 33 -17 15 -28 31 -25 35 10 17 46 -1 73 -36 15 -18 37 -40 50 -49
22 -14 22 -14 16 13 -11 43 -53 131 -67 140 -19 12 -28 11 -104 -15z"/>
<path d="M10632 10011 c-11 -6 -11 -10 0 -18 39 -32 142 -58 221 -54 30 1 48
28 27 41 -6 4 -53 13 -104 20 -50 7 -100 14 -111 16 -11 2 -26 0 -33 -5z"/>
<path d="M2002 9933 c7 -37 215 -91 234 -61 11 17 -18 34 -96 56 -95 28 -143
29 -138 5z"/>
<path d="M10866 9861 c-17 -26 47 -72 121 -87 66 -13 51 38 -21 72 -53 25 -91
30 -100 15z"/>
<path d="M1848 9799 c-37 -12 -65 -31 -93 -62 -46 -51 -82 -114 -71 -125 12
-11 157 -15 196 -5 20 5 36 17 38 26 3 14 -4 16 -45 13 -55 -4 -83 10 -83 40
0 45 77 76 165 67 40 -5 45 -3 45 14 0 43 -74 59 -152 32z"/>
<path d="M10964 9648 c-12 -19 35 -48 77 -48 47 0 60 17 29 42 -25 20 -95 25
-106 6z"/>
<path d="M7368 9573 c-52 -56 -121 -333 -83 -333 28 0 68 89 79 175 8 70 26
112 52 123 18 9 24 19 22 35 -5 33 -39 33 -70 0z"/>
<path d="M1754 9521 c-38 -23 -109 -38 -193 -40 -94 -3 -102 -12 -45 -50 43
-30 33 -39 -50 -42 -73 -3 -159 -40 -149 -64 7 -20 64 -15 186 16 99 25 154
46 192 75 17 12 41 25 55 29 39 12 50 25 50 61 0 39 -4 41 -46 15z"/>
<path d="M7877 9534 c-1 -1 -21 -4 -45 -8 -94 -13 -182 -76 -182 -132 0 -31
13 -30 58 5 44 34 91 51 142 51 41 0 103 36 108 62 2 12 -7 17 -38 20 -23 2
-42 3 -43 2z"/>
<path d="M7476 9488 c-38 -66 -68 -137 -61 -148 19 -31 61 11 92 96 34 91 13
127 -31 52z"/>
<path d="M8836 9411 c-76 -41 -259 -188 -400 -323 -28 -27 -63 -52 -79 -55
-32 -7 -39 -15 -31 -37 11 -28 43 -29 87 -2 44 26 47 29 193 163 162 148 278
233 296 215 4 -4 1 -32 -6 -62 -18 -84 -13 -100 37 -100 18 0 47 -9 65 -20 24
-15 50 -20 103 -20 55 0 76 -4 98 -21 21 -15 54 -24 117 -30 l89 -10 52 -55
c29 -31 58 -54 65 -52 7 3 14 19 16 37 3 27 -3 39 -36 70 -47 45 -108 66 -251
86 -127 19 -170 31 -194 56 -10 11 -31 19 -47 19 -43 0 -60 23 -60 81 0 59
-13 89 -39 89 -11 0 -44 -13 -75 -29z"/>
<path d="M1556 9322 c-2 -2 -10 -5 -18 -6 -98 -20 -289 -88 -320 -115 -22 -19
-23 -41 -2 -41 18 0 184 50 289 87 82 28 118 50 112 66 -3 11 -53 18 -61 9z"/>
<path d="M1502 9209 c-114 -56 -190 -151 -183 -226 2 -24 44 -13 89 24 52 42
84 91 76 115 -4 13 6 23 38 39 45 22 88 57 88 71 0 17 -49 7 -108 -23z"/>
<path d="M6580 9082 c0 -6 16 -19 35 -28 41 -19 83 -66 115 -130 13 -24 31
-51 42 -61 18 -16 20 -16 43 12 23 29 24 29 25 7 0 -30 29 -41 46 -17 8 10 14
33 14 51 0 44 12 49 46 18 66 -58 72 -60 102 -30 16 14 32 26 38 26 5 0 33
-25 62 -56 29 -30 58 -54 65 -51 6 2 13 17 15 34 7 68 -97 127 -243 138 -103
7 -166 21 -251 55 -86 34 -154 48 -154 32z"/>
<path d="M6397 9053 c-20 -19 -4 -43 41 -63 51 -23 144 -108 169 -155 9 -16
19 -43 22 -59 8 -37 37 -57 52 -36 13 20 4 92 -17 132 -27 51 -105 121 -177
156 -70 33 -79 36 -90 25z"/>
<path d="M6042 8988 c-7 -7 -12 -19 -12 -28 0 -37 -33 -50 -141 -55 -212 -10
-273 -25 -309 -75 -20 -28 -27 -94 -12 -116 14 -21 47 -32 70 -23 28 11 28 16
-4 46 -32 29 -28 52 14 76 52 30 144 31 212 2 30 -13 66 -24 79 -25 20 0 22 4
17 25 -6 22 -3 25 18 25 14 0 48 -5 77 -11 64 -14 72 -5 53 59 -8 25 -13 47
-11 49 2 2 16 -8 32 -21 53 -46 148 -97 160 -85 13 14 -103 125 -159 150 -48
22 -68 23 -84 7z"/>
<path d="M1371 8915 c-36 -42 -56 -85 -66 -146 -9 -53 -37 -140 -66 -205 -59
-131 -72 -194 -41 -194 12 0 33 34 71 115 56 120 113 191 160 201 59 13 93 27
98 40 9 24 -4 29 -80 30 -103 2 -100 0 -86 26 6 12 31 46 56 76 26 32 42 60
39 69 -3 8 -6 17 -6 19 0 2 -11 4 -24 4 -15 0 -36 -13 -55 -35z"/>
<path d="M8888 8799 c-78 -28 -142 -99 -88 -99 20 0 82 31 110 55 14 12 49 26
78 31 18 3 42 -24 42 -47 0 -35 94 -52 155 -29 45 17 22 44 -48 55 -23 4 -41
13 -44 23 -4 9 -11 20 -17 25 -19 13 -134 4 -188 -14z"/>
<path d="M3667 8268 c-9 -7 -26 -38 -38 -68 -18 -45 -22 -76 -23 -172 -1 -81
3 -121 12 -129 26 -27 36 5 47 146 3 44 14 112 24 150 23 85 17 102 -22 73z"/>
<path d="M3715 7970 c-19 -30 -32 -113 -31 -195 2 -87 8 -115 26 -115 20 0 28
56 31 203 1 93 -9 135 -26 107z"/>
<path d="M3805 7786 c-18 -13 -20 -27 -20 -125 0 -113 11 -149 37 -123 14 14
24 223 11 246 -8 14 -11 14 -28 2z"/>
<path d="M3911 7572 c-14 -27 -8 -177 9 -196 23 -29 37 -1 39 77 2 109 -22
168 -48 119z"/>
<path d="M4795 5151 c-34 -56 -58 -231 -31 -231 16 0 44 61 54 120 7 42 7 59
3 103 -1 18 -16 23 -26 8z"/>
<path d="M4444 4906 c-10 -26 4 -48 28 -44 17 2 23 10 23 28 0 18 -6 26 -23
28 -13 2 -25 -3 -28 -12z"/>
<path d="M7950 3769 c0 -10 49 -56 79 -73 14 -9 14 -7 2 10 -47 61 -81 88 -81
63z"/>
<path d="M6940 3679 c0 -10 46 -20 64 -13 9 3 13 10 10 15 -6 11 -74 9 -74 -2z"/>
<path d="M8135 3680 c-15 -5 -10 -8 20 -13 22 -3 49 -4 60 -2 11 2 26 4 34 4
8 1 12 4 8 7 -9 9 -99 12 -122 4z"/>
<path d="M7568 3595 c-2 -2 -20 -5 -41 -8 -20 -3 -49 -12 -62 -21 -53 -35 -13
-127 78 -181 54 -31 68 -56 66 -110 -3 -53 0 -57 46 -62 40 -4 44 8 14 38 -15
15 -19 28 -14 47 7 29 62 92 80 92 6 0 30 18 53 40 54 52 56 85 8 118 -18 13
-50 27 -70 33 -34 9 -152 20 -158 14z"/>
<path d="M7475 3197 c-16 -5 -36 -14 -42 -20 -15 -11 -17 -27 -3 -27 19 0 120
42 120 49 0 11 -39 10 -75 -2z"/>
</g>
</svg>
