<?xml version="1.0" standalone="no"?>
<!DOCTYPE svg PUBLIC "-//W3C//DTD SVG 20010904//EN"
 "http://www.w3.org/TR/2001/REC-SVG-20010904/DTD/svg10.dtd">
<svg version="1.0" xmlns="http://www.w3.org/2000/svg"
 width="500.000000pt" height="488.000000pt" viewBox="0 0 500.000000 488.000000"
 preserveAspectRatio="xMidYMid meet">

<g transform="translate(0.000000,488.000000) scale(0.100000,-0.100000)"
fill="#000000" stroke="none">
<path d="M2475 4868 c-33 -5 -119 -8 -192 -8 -73 0 -134 -4 -137 -9 -3 -5 -26
-6 -51 -4 -30 4 -52 1 -67 -9 -17 -11 -41 -14 -86 -10 -47 3 -67 1 -80 -11
-18 -15 -54 -24 -132 -34 -25 -3 -49 -9 -55 -14 -5 -5 -16 -9 -25 -9 -9 0 -26
-11 -38 -25 -12 -14 -32 -25 -45 -25 -13 0 -32 -7 -43 -15 -10 -8 -27 -15 -36
-15 -10 0 -25 -11 -34 -25 -9 -14 -24 -25 -34 -25 -32 0 -50 -11 -50 -31 0
-15 -7 -19 -39 -19 -52 0 -71 -8 -71 -31 0 -13 -7 -19 -21 -19 -28 0 -59 -18
-59 -34 0 -15 -21 -26 -52 -26 -11 0 -22 -8 -25 -20 -3 -11 -11 -20 -18 -20
-8 0 -22 -11 -33 -25 -11 -14 -27 -25 -37 -25 -24 0 -55 -19 -55 -33 0 -11
-43 -42 -83 -59 -9 -4 -20 -14 -23 -23 -4 -8 -12 -15 -19 -15 -8 0 -22 -11
-32 -24 -10 -13 -29 -26 -41 -30 -15 -5 -22 -15 -22 -31 0 -14 -8 -29 -19 -35
-11 -5 -22 -18 -26 -28 -3 -11 -17 -24 -30 -30 -17 -8 -25 -20 -25 -36 0 -18
-7 -26 -27 -31 -36 -9 -53 -23 -53 -44 0 -9 -14 -25 -31 -36 -33 -21 -59 -63
-59 -93 0 -10 -16 -33 -35 -52 -29 -28 -35 -41 -35 -76 0 -38 -5 -46 -50 -84
-37 -31 -50 -49 -50 -69 0 -15 -8 -31 -20 -39 -12 -7 -20 -23 -20 -38 0 -16
-11 -36 -25 -50 -14 -13 -25 -33 -25 -46 0 -13 -9 -29 -20 -36 -15 -9 -20 -23
-20 -56 0 -25 -4 -47 -9 -50 -8 -5 -14 -30 -27 -118 -3 -21 -12 -42 -20 -49
-8 -6 -14 -24 -14 -39 0 -15 -7 -41 -15 -56 -9 -18 -15 -57 -15 -99 0 -53 -5
-77 -20 -100 -11 -17 -20 -47 -20 -68 0 -21 -7 -52 -16 -69 -12 -23 -14 -44
-8 -92 4 -33 7 -94 6 -135 -1 -45 4 -87 14 -109 10 -24 15 -69 15 -131 0 -52
4 -102 9 -111 5 -10 13 -69 18 -130 7 -91 13 -116 27 -126 13 -9 20 -31 23
-69 2 -30 8 -58 13 -61 5 -3 9 -27 9 -53 0 -34 10 -66 35 -117 19 -38 35 -74
35 -81 0 -6 12 -24 28 -40 15 -15 35 -40 44 -55 10 -14 28 -28 40 -30 20 -3
27 -16 49 -96 29 -100 42 -122 70 -122 10 0 23 -9 29 -20 6 -11 16 -20 22 -20
6 0 30 -19 54 -42 94 -93 140 -128 172 -128 22 0 38 -9 56 -31 14 -17 26 -34
26 -39 0 -19 137 -150 157 -150 12 0 35 -11 51 -25 17 -14 43 -31 59 -38 16
-6 42 -22 59 -35 113 -88 138 -102 185 -102 29 0 51 -6 59 -15 7 -8 24 -15 39
-15 14 0 35 -7 45 -15 11 -8 37 -15 57 -15 21 0 40 -4 44 -10 3 -5 33 -14 66
-21 l61 -12 -7 -51 c-8 -64 -36 -128 -75 -172 -32 -37 -40 -84 -17 -103 8 -6
63 -12 129 -13 103 -3 118 -1 138 17 18 16 21 26 15 60 -12 75 -17 156 -11
178 5 21 10 22 93 19 97 -3 272 -26 300 -40 10 -5 32 -16 48 -24 47 -24 129
-21 212 8 41 13 79 21 86 17 19 -12 149 -12 190 0 29 8 47 7 74 -2 28 -11 54
-11 134 0 55 7 102 16 105 21 3 4 16 8 28 8 13 0 35 9 49 20 14 11 40 20 59
20 33 0 35 -2 46 -51 16 -68 15 -104 -4 -140 -8 -16 -12 -39 -9 -50 12 -37 40
-42 224 -40 103 1 111 5 111 51 0 32 -8 46 -49 89 -53 55 -92 139 -95 201 -1
33 1 35 27 32 15 -2 39 4 52 12 13 9 35 16 48 16 14 0 30 7 37 15 8 9 30 15
60 15 49 0 82 18 192 108 22 17 45 32 52 32 7 0 30 13 52 30 21 16 49 30 62
30 13 0 33 11 45 24 12 13 42 46 67 73 25 27 58 66 73 86 22 29 35 37 59 37
24 0 41 10 75 45 23 25 47 45 53 45 5 0 36 26 69 59 32 32 70 61 84 65 28 7
44 40 75 156 13 49 22 66 37 68 24 5 55 31 55 46 0 6 9 17 19 23 11 7 38 49
61 95 31 62 43 99 47 146 3 34 10 65 14 68 5 3 9 25 9 48 0 28 7 52 20 68 14
19 22 54 31 139 6 63 15 119 20 125 5 5 8 53 8 105 0 65 5 106 16 133 11 25
15 56 12 85 -2 25 0 85 5 133 8 75 7 92 -8 120 -10 18 -17 48 -15 67 1 19 -7
48 -19 68 -15 25 -20 52 -20 101 0 40 -6 79 -15 96 -8 15 -15 40 -15 55 0 15
-7 36 -15 47 -8 10 -15 33 -15 51 0 17 -4 34 -9 37 -9 6 -11 18 -29 125 -5 32
-15 57 -25 63 -10 5 -17 20 -17 33 0 13 -11 32 -25 43 -15 12 -25 30 -25 46 0
14 -9 34 -20 43 -11 10 -20 28 -20 40 0 13 -8 31 -19 41 -10 9 -32 30 -50 45
-25 23 -31 37 -31 68 0 31 -7 47 -35 76 -20 22 -35 47 -35 62 0 16 -15 39 -44
67 -24 23 -46 50 -48 60 -2 11 -18 24 -38 30 -27 9 -36 18 -38 38 -2 17 -11
28 -27 32 -13 3 -26 16 -29 29 -3 13 -15 27 -26 30 -13 4 -20 15 -20 31 0 17
-8 27 -24 34 -14 5 -30 18 -36 30 -6 11 -19 20 -30 20 -10 0 -21 9 -25 19 -3
11 -16 23 -28 27 -11 4 -27 13 -35 20 -7 8 -19 14 -25 14 -7 0 -17 10 -22 23
-6 13 -21 23 -37 25 -15 2 -34 14 -42 28 -9 13 -21 24 -28 24 -6 0 -21 11 -34
25 -13 14 -32 25 -44 25 -13 0 -24 9 -30 25 -7 19 -17 25 -40 25 -23 0 -33 6
-40 25 -8 22 -16 25 -55 25 -39 0 -47 4 -54 24 -10 24 -29 36 -61 36 -10 0
-20 9 -23 20 -3 12 -14 20 -27 20 -12 0 -33 9 -47 20 -14 11 -38 20 -53 20
-19 0 -29 6 -33 20 -3 11 -12 20 -21 20 -9 0 -27 6 -39 14 -12 8 -57 17 -99
21 -50 4 -78 11 -82 20 -3 9 -31 15 -83 18 -43 3 -112 11 -153 17 -90 14 -352
18 -435 8z m118 -50 c3 -10 9 -10 24 -1 16 9 23 8 35 -4 14 -13 19 -13 43 3
22 14 31 15 46 6 14 -9 25 -9 42 -1 20 9 30 8 50 -6 22 -14 31 -15 60 -4 31
11 38 10 60 -8 23 -18 32 -19 83 -10 49 9 58 9 69 -6 7 -11 26 -17 48 -17 20
0 39 -4 42 -10 3 -5 26 -10 51 -10 24 0 44 -4 44 -10 0 -5 11 -10 25 -10 18 0
25 -5 25 -19 0 -22 19 -31 66 -31 22 0 37 -6 40 -15 4 -8 17 -15 30 -15 14 0
27 -7 31 -17 9 -24 23 -33 56 -33 22 0 27 -4 27 -25 0 -23 3 -25 49 -25 46 0
48 -1 44 -24 -5 -23 -2 -25 43 -28 41 -2 49 -6 49 -22 0 -15 11 -23 40 -30 31
-8 40 -15 37 -28 -2 -12 3 -18 16 -18 34 0 52 -11 52 -31 0 -14 7 -19 30 -19
23 0 33 -6 42 -25 6 -14 17 -25 23 -25 7 0 22 -9 35 -20 13 -11 29 -20 35 -20
7 0 15 -9 18 -20 3 -13 14 -20 30 -20 19 0 26 -6 29 -22 2 -17 11 -24 30 -26
24 -3 27 -7 22 -31 -5 -24 -2 -29 21 -35 20 -5 25 -11 20 -26 -5 -15 0 -21 27
-28 27 -7 34 -13 36 -39 3 -27 8 -32 38 -37 19 -4 34 -13 34 -20 0 -7 20 -31
45 -53 30 -27 45 -48 45 -65 0 -14 16 -43 36 -66 27 -32 35 -48 30 -66 -7 -28
37 -94 77 -115 19 -10 27 -22 27 -41 0 -15 9 -35 20 -45 11 -10 20 -31 20 -46
0 -19 8 -34 25 -45 14 -9 25 -23 25 -32 0 -13 -2 -13 -18 1 -10 10 -22 17 -27
17 -4 0 -25 16 -46 35 -22 19 -47 35 -57 35 -19 0 -46 -45 -37 -60 3 -5 -4
-14 -15 -20 -12 -6 -20 -21 -20 -35 0 -14 -6 -34 -12 -45 -9 -15 -10 -27 -2
-48 9 -22 8 -33 -3 -48 -9 -12 -13 -37 -11 -71 3 -46 0 -53 -24 -73 -16 -12
-28 -30 -28 -40 0 -10 -6 -21 -12 -23 -10 -4 -10 -7 0 -14 19 -14 11 -113 -10
-135 -24 -24 -24 -98 0 -128 18 -22 18 -24 -2 -79 -27 -73 -30 -77 -77 -107
-21 -13 -39 -31 -39 -39 0 -9 -13 -18 -31 -22 -17 -3 -36 -14 -42 -24 -7 -11
-22 -19 -34 -19 -45 0 -57 -77 -24 -150 16 -36 17 -47 7 -82 -7 -22 -20 -44
-29 -50 -9 -5 -17 -17 -17 -26 0 -9 -15 -24 -32 -32 -22 -10 -36 -27 -44 -52
-7 -21 -38 -64 -68 -95 -31 -32 -56 -64 -56 -70 0 -7 -14 -20 -30 -28 -20 -10
-33 -26 -37 -45 -3 -16 -14 -32 -24 -35 -10 -3 -20 -14 -23 -23 -11 -33 -87
-54 -124 -33 -13 7 -37 11 -54 9 -24 -2 -39 4 -59 24 -17 18 -33 26 -44 22 -8
-4 -24 1 -34 10 -17 15 -21 15 -64 -3 -25 -11 -50 -27 -55 -37 -9 -16 -12 -13
-25 18 -20 48 -55 69 -125 77 -52 6 -55 8 -34 19 12 7 22 21 22 31 0 41 23 42
111 4 74 -32 96 -37 184 -41 70 -3 120 1 169 12 175 41 326 175 326 288 0 42
-24 72 -51 65 -15 -4 -19 0 -19 19 0 39 -36 67 -79 62 -32 -5 -38 -2 -56 26
-22 34 -66 46 -90 26 -8 -6 -21 -33 -30 -60 -21 -64 -87 -137 -150 -166 -68
-32 -163 -33 -191 -3 -31 35 -25 119 15 206 32 70 33 73 17 98 -22 34 -74 34
-114 0 l-30 -25 -16 25 c-20 30 -54 32 -88 5 -77 -60 -78 -229 -2 -355 19 -32
34 -59 34 -61 0 -2 -13 -1 -28 2 -32 7 -62 -16 -62 -46 0 -15 -27 -36 -36 -28
-1 2 2 64 6 138 10 154 2 360 -14 382 -35 47 -167 85 -342 97 -254 19 -551
-32 -615 -105 -29 -33 -30 -57 -14 -255 8 -107 15 -200 15 -208 0 -19 -60 -7
-139 30 l-63 29 37 41 c77 85 104 196 74 304 -15 54 -77 115 -117 115 -38 0
-65 -26 -58 -54 4 -16 -1 -14 -25 12 -51 55 -104 54 -123 -2 -8 -21 -4 -38 22
-89 37 -72 41 -127 12 -174 -34 -57 -120 -81 -184 -52 -44 21 -106 139 -106
203 0 30 -36 76 -59 76 -10 0 -28 -12 -42 -26 -20 -21 -24 -36 -24 -85 0 -32
-1 -59 -2 -59 -1 0 -18 25 -37 55 -38 58 -69 75 -105 56 -23 -13 -36 -50 -28
-80 4 -17 0 -19 -27 -14 -44 7 -71 -23 -63 -73 14 -82 103 -177 225 -238 126
-64 279 -76 438 -34 90 23 91 23 123 4 18 -10 57 -29 87 -41 61 -25 65 -19
-54 -71 -36 -15 -76 -42 -93 -62 -29 -32 -31 -40 -27 -93 3 -44 10 -65 29 -85
29 -33 201 -117 287 -140 66 -18 77 -34 38 -52 -14 -6 -32 -23 -42 -37 -14
-22 -23 -25 -75 -25 -32 0 -61 5 -65 11 -3 6 -17 9 -30 6 -14 -2 -27 0 -30 5
-9 15 -55 29 -67 21 -17 -10 -65 -4 -112 13 -28 10 -45 25 -55 47 -8 18 -26
37 -40 44 -14 6 -34 28 -44 48 -13 24 -29 38 -47 42 -15 3 -47 25 -72 50 -34
34 -56 46 -86 50 -26 4 -42 12 -46 23 -3 10 -33 42 -67 71 -33 30 -72 66 -86
82 -14 15 -36 27 -49 27 -19 0 -28 11 -47 54 -18 41 -53 83 -141 170 -80 80
-122 130 -137 163 -27 60 -58 103 -75 103 -7 0 -19 11 -25 25 -6 14 -21 28
-32 31 -12 3 -32 20 -44 38 -18 27 -22 45 -20 87 2 33 9 59 18 66 13 11 13 12
-2 13 -29 0 -22 45 12 84 17 19 26 37 21 40 -5 4 -22 -9 -37 -29 -26 -35 -44
-45 -44 -24 0 6 -12 26 -26 45 -22 28 -33 34 -64 34 -45 0 -112 -45 -136 -92
-9 -18 -23 -40 -30 -48 -37 -41 -64 -79 -64 -92 0 -8 -9 -23 -20 -33 -11 -10
-22 -26 -25 -36 -3 -10 -20 -25 -36 -33 -29 -14 -30 -14 -24 5 4 11 2 19 -6
19 -8 0 -10 17 -6 59 3 41 1 61 -6 64 -8 3 -2 23 17 57 23 42 26 54 15 61 -11
7 -9 18 14 58 17 30 23 52 17 56 -16 10 -12 53 6 63 13 7 14 12 3 29 -10 17
-9 24 4 44 10 13 17 38 17 56 0 18 5 33 10 33 6 0 10 17 10 38 0 21 7 47 15
58 8 10 15 31 15 46 0 17 8 31 20 38 21 11 28 40 10 40 -20 0 -11 48 10 53 14
4 20 14 20 34 0 19 9 37 25 51 15 14 25 32 25 50 0 16 8 32 20 40 12 7 20 23
20 38 0 18 16 41 55 78 50 47 55 55 49 84 -6 27 -1 38 30 72 20 22 36 51 36
63 0 16 16 39 45 65 25 22 45 48 45 56 0 9 12 16 33 18 28 3 32 7 35 35 3 28
8 33 38 39 31 6 35 9 30 30 -6 21 -3 24 20 24 24 0 26 3 22 31 -4 27 -1 31 24
36 18 3 28 12 28 23 0 11 10 20 30 24 21 4 30 11 30 26 0 13 7 20 20 20 11 0
23 7 26 15 4 8 17 15 30 15 17 0 25 7 30 25 5 20 13 25 35 25 22 0 32 6 39 25
7 18 17 25 35 25 18 0 28 7 35 24 6 16 19 26 45 30 30 6 36 11 32 27 -4 16 0
19 30 19 48 0 78 17 62 36 -10 12 -4 14 39 14 48 0 51 2 54 28 3 23 8 27 41
30 29 3 37 7 37 23 0 14 7 19 30 19 19 0 30 5 30 14 0 17 22 26 67 26 26 0 36
5 40 20 3 11 14 20 24 20 10 0 21 5 24 10 3 6 26 10 50 10 24 0 47 5 50 10 3
6 24 10 46 10 29 0 39 4 39 16 0 15 9 16 69 10 56 -5 71 -3 82 10 10 13 24 15
62 10 31 -5 54 -3 63 5 9 7 28 9 50 4 25 -4 39 -2 45 6 6 10 14 8 34 -5 23
-15 31 -16 51 -6 19 11 26 10 39 0 13 -11 18 -11 24 -1 5 7 19 11 32 10 13 -2
29 0 36 4 6 4 14 3 18 -3 4 -7 14 -5 28 5 26 18 64 20 70 3z m586 -2871 l26
-48 -28 -24 c-15 -14 -32 -25 -37 -25 -5 0 -22 23 -36 52 l-26 52 27 23 c15
13 32 22 38 20 6 -2 22 -24 36 -50z m-654 -87 l29 -30 33 32 c32 31 33 31 53
13 25 -23 25 -37 0 -60 -26 -24 -25 -33 6 -66 22 -23 24 -30 15 -48 -15 -26
-31 -27 -64 -1 -32 25 -35 25 -80 -6 -36 -24 -40 -25 -63 -10 -13 9 -24 20
-24 23 0 4 14 22 31 39 l32 33 -27 32 -27 32 22 23 c12 13 25 24 29 24 3 0 19
-14 35 -30z m-432 -39 c4 -30 5 -57 1 -60 -3 -3 -38 12 -77 33 -79 42 -93 53
-85 61 9 9 91 23 123 22 28 -2 30 -5 38 -56z m1021 28 c43 -9 56 -16 54 -28
-3 -18 -77 -56 -125 -65 -33 -5 -33 -5 -33 33 0 76 6 79 104 60z m-187 -496
c-12 -127 -95 -251 -200 -298 -121 -55 -250 -53 -375 6 -66 32 -151 108 -195
174 -25 38 -59 143 -51 157 2 3 31 -2 63 -12 58 -17 59 -17 64 1 8 29 37 12
37 -21 0 -35 23 -60 56 -60 37 0 61 16 68 45 7 27 26 35 26 10 0 -12 15 -15
73 -15 96 0 147 9 147 26 0 29 26 12 42 -26 14 -33 21 -40 44 -40 40 0 64 26
64 72 0 46 29 56 31 11 1 -16 3 -21 6 -11 4 14 66 44 97 47 5 1 6 -29 3 -66z
m483 -991 c0 -31 39 -137 64 -173 l23 -34 -24 -32 -25 -32 -28 21 c-16 12 -42
21 -58 20 l-29 -1 -7 87 -6 86 37 38 c41 42 53 47 53 20z m-1588 -17 c-2 -11
-6 -66 -9 -122 -4 -70 -9 -103 -18 -103 -6 0 -33 -11 -60 -25 -45 -22 -49 -23
-61 -7 -18 23 -18 21 12 85 15 35 27 83 31 127 l6 71 51 -3 c45 -3 51 -6 48
-23z"/>
<path d="M2734 4446 c-33 -15 -50 -33 -40 -43 3 -4 14 1 24 10 25 23 31 21 25
-4 -6 -20 -3 -21 33 -15 83 14 124 13 124 -1 0 -7 7 -13 15 -13 19 0 85 59 66
60 -8 0 -25 -10 -38 -22 -13 -12 -23 -16 -23 -10 0 7 -13 12 -29 12 -16 0 -31
5 -33 11 -3 8 -14 7 -35 -5 -18 -9 -38 -16 -45 -16 -7 1 4 10 25 21 20 11 37
22 37 24 0 10 -77 3 -106 -9z"/>
<path d="M2083 4346 c18 -27 34 -31 39 -9 4 15 7 13 18 -9 16 -33 26 -35 35
-8 9 29 20 25 39 -15 19 -39 36 -38 36 3 1 24 3 23 25 -18 18 -36 25 -41 30
-28 4 10 1 24 -8 33 -9 8 -19 24 -22 35 -7 21 -30 27 -40 9 -5 -7 -14 -4 -27
7 -15 15 -23 16 -38 7 -14 -10 -19 -9 -24 2 -3 9 -18 14 -41 13 -33 -1 -34 -2
-22 -22z"/>
<path d="M1990 4344 c0 -11 6 -15 20 -11 10 3 27 -1 37 -9 33 -25 50 -15 18
11 -35 29 -75 33 -75 9z"/>
<path d="M2333 4285 c12 -41 30 -48 21 -7 -8 34 -13 42 -24 42 -4 0 -3 -16 3
-35z"/>
<path d="M1695 4252 c21 -21 65 -39 65 -25 0 4 -12 14 -28 21 -51 25 -58 26
-37 4z"/>
<path d="M1620 4232 c0 -11 51 -35 58 -27 7 7 -29 34 -45 35 -7 0 -13 -4 -13
-8z"/>
<path d="M1560 4190 c0 -5 16 -10 36 -10 21 0 33 4 29 10 -3 6 -19 10 -36 10
-16 0 -29 -4 -29 -10z"/>
<path d="M3430 4170 c-33 -7 -31 -7 18 -9 29 0 52 3 52 9 0 11 -17 11 -70 0z"/>
<path d="M1490 4145 c0 -3 10 -10 23 -15 21 -8 21 -9 1 -9 -27 -1 -125 -51
-119 -61 2 -4 26 4 52 17 33 17 58 23 81 19 29 -4 32 -3 32 22 0 24 -4 27 -35
29 -19 2 -35 1 -35 -2z"/>
<path d="M3490 4115 c13 -14 31 -25 41 -25 10 0 21 -5 24 -10 4 -6 11 -8 16
-4 14 8 0 24 -22 24 -12 0 -19 7 -19 20 0 16 -7 20 -32 20 l-31 0 23 -25z"/>
<path d="M790 3910 l-35 -7 43 -2 c23 0 42 4 42 9 0 6 -3 9 -7 9 -5 -1 -24 -5
-43 -9z"/>
<path d="M2920 3845 c-48 -49 -32 -53 20 -5 24 22 37 40 29 40 -8 0 -30 -16
-49 -35z"/>
<path d="M3021 3848 c-25 -18 -40 -33 -33 -36 10 -3 102 55 102 65 0 11 -31
-2 -69 -29z"/>
<path d="M713 3853 c15 -2 39 -2 55 0 15 2 2 4 -28 4 -30 0 -43 -2 -27 -4z"/>
<path d="M3121 3847 c-14 -6 -27 -19 -29 -27 -4 -12 -2 -13 9 -3 8 6 30 18 49
26 25 11 29 16 15 16 -11 0 -31 -5 -44 -12z"/>
<path d="M3195 3817 c-22 -11 -35 -22 -28 -24 16 -6 83 24 83 36 0 14 -7 13
-55 -12z"/>
<path d="M3263 3808 c-13 -6 -23 -15 -23 -20 0 -11 11 -10 40 7 22 12 27 11
43 -2 9 -9 17 -22 17 -30 0 -7 5 -13 10 -13 18 0 11 29 -12 50 -24 22 -42 24
-75 8z"/>
<path d="M664 3795 c-16 -12 -17 -16 -5 -24 11 -7 7 -11 -19 -18 -18 -5 -35
-14 -38 -21 -3 -9 4 -9 30 0 44 15 58 27 51 44 -3 9 2 14 15 14 12 0 24 5 27
10 10 16 -39 12 -61 -5z"/>
<path d="M1290 3795 c-7 -8 -21 -15 -31 -15 -12 0 -16 -5 -13 -15 5 -12 -2
-15 -30 -15 -20 0 -36 -4 -36 -10 0 -5 18 -10 40 -10 29 0 40 4 40 15 0 8 6
15 13 15 14 0 47 31 47 43 0 12 -17 7 -30 -8z"/>
<path d="M1210 3708 c-38 -10 -68 -34 -57 -44 3 -3 13 0 21 8 8 9 38 18 66 22
28 4 48 11 45 16 -7 12 -28 11 -75 -2z"/>
<path d="M612 3697 c-24 -14 -67 -76 -58 -84 9 -9 65 41 61 54 -2 7 5 15 16
18 10 4 19 11 19 16 0 12 -10 11 -38 -4z"/>
<path d="M570 3592 c-27 -18 -80 -70 -80 -77 0 -15 25 -1 48 26 14 18 41 38
59 45 18 8 33 16 33 19 0 11 -37 4 -60 -13z"/>
<path d="M4450 3421 c0 -5 7 -17 16 -25 15 -15 34 -21 34 -11 0 3 -9 14 -20
25 -22 22 -30 25 -30 11z"/>
<path d="M3430 3410 c0 -6 35 -10 84 -10 47 0 88 5 91 10 4 6 -27 10 -84 10
-54 0 -91 -4 -91 -10z"/>
<path d="M4260 3411 c0 -5 16 -19 35 -31 19 -12 40 -31 46 -41 5 -11 15 -17
20 -13 6 4 -1 18 -18 36 -31 33 -83 64 -83 49z"/>
<path d="M4390 3403 c-8 -2 -21 -7 -29 -9 -9 -3 -5 -11 13 -25 15 -12 30 -18
34 -15 3 4 0 11 -8 16 -8 5 -11 12 -7 16 3 4 15 -4 26 -17 23 -27 26 -22 9 16
-12 26 -13 27 -38 18z"/>
<path d="M3545 3372 c15 -16 85 -27 85 -13 0 6 -6 11 -14 11 -7 0 -29 3 -47 6
-24 5 -31 3 -24 -4z"/>
<path d="M666 3352 c-2 -4 13 -13 35 -19 22 -6 42 -7 44 -2 5 7 -3 10 -57 25
-9 3 -19 1 -22 -4z"/>
<path d="M3620 3323 c0 -12 49 -32 55 -23 3 5 -3 14 -14 19 -23 13 -41 14 -41
4z"/>
<path d="M581 3281 c-12 -16 -21 -32 -21 -35 0 -3 18 -6 40 -6 22 0 40 5 40
11 0 5 -4 8 -9 5 -5 -4 -16 -3 -25 0 -28 11 2 41 37 36 20 -3 28 -1 23 7 -14
23 -64 12 -85 -18z"/>
<path d="M3655 3250 c3 -5 15 -10 26 -10 11 0 17 5 14 10 -3 6 -15 10 -26 10
-11 0 -17 -4 -14 -10z"/>
<path d="M2453 3228 c-13 -16 -34 -101 -27 -107 8 -9 22 20 28 60 3 22 11 39
16 39 6 0 10 5 10 10 0 14 -16 12 -27 -2z"/>
<path d="M580 3210 c-8 -5 -33 -10 -55 -10 -37 -1 -39 -2 -21 -15 19 -14 18
-15 -10 -15 -29 0 -63 -15 -54 -24 9 -8 104 16 121 30 8 8 21 14 27 14 7 0 12
7 12 15 0 18 0 18 -20 5z"/>
<path d="M2486 3191 c-18 -35 -19 -41 -7 -41 11 0 36 59 28 66 -3 3 -13 -8
-21 -25z"/>
<path d="M2571 3201 c-12 -7 -21 -20 -21 -29 0 -13 2 -13 18 1 10 10 30 17 44
17 14 0 31 6 37 14 10 12 7 14 -23 13 -19 -1 -44 -8 -55 -16z"/>
<path d="M2890 3137 c-36 -29 -71 -61 -79 -70 -7 -9 -20 -17 -28 -17 -8 0 -11
-4 -8 -10 11 -18 25 -11 89 49 35 32 73 64 86 71 21 11 22 10 15 -19 -6 -27
-4 -31 14 -31 11 0 22 -4 25 -9 3 -4 16 -6 30 -4 13 3 27 0 30 -6 4 -6 23 -11
42 -11 23 0 38 -6 46 -20 15 -23 28 -26 28 -7 0 26 -35 45 -97 52 -35 4 -63
11 -63 16 0 5 -9 9 -19 9 -15 0 -19 6 -18 27 3 44 -23 38 -93 -20z"/>
<path d="M490 3139 c-57 -16 -90 -31 -90 -41 0 -5 6 -7 13 -4 6 3 38 13 70 22
31 10 57 21 57 26 0 9 -4 9 -50 -3z"/>
<path d="M479 3097 c-30 -20 -53 -68 -32 -67 16 1 54 40 48 50 -3 5 -2 10 2
10 5 0 18 7 29 15 33 25 -8 18 -47 -8z"/>
<path d="M2207 3058 c13 -6 28 -24 35 -39 14 -31 23 -36 31 -16 4 10 6 10 6 0
2 -22 21 -14 21 9 0 21 0 21 21 2 17 -16 22 -16 30 -4 8 13 12 11 28 -7 22
-27 31 -29 31 -8 0 23 -41 43 -88 43 -23 1 -57 8 -74 16 -17 9 -38 16 -47 15
-11 0 -9 -4 6 -11z"/>
<path d="M2130 3050 c0 -5 4 -10 9 -10 19 0 71 -52 71 -71 0 -10 5 -19 10 -19
15 0 12 33 -6 58 -8 12 -28 29 -44 37 -34 18 -40 18 -40 5z"/>
<path d="M2010 3025 c0 -9 -10 -15 -22 -16 -13 -1 -42 -2 -66 -3 -23 -1 -50
-9 -58 -18 -21 -21 -10 -60 14 -51 10 4 12 8 4 11 -7 2 -12 10 -12 17 0 18 54
29 79 16 26 -14 44 -14 35 0 -4 8 3 9 26 4 30 -7 32 -6 25 15 l-7 23 31 -23
c43 -30 50 -20 11 14 -35 29 -60 34 -60 11z"/>
<path d="M456 3011 c-10 -11 -19 -33 -21 -48 -1 -15 -12 -50 -25 -76 -12 -26
-19 -51 -15 -55 4 -4 10 -2 12 3 29 71 50 100 76 103 15 2 27 8 27 14 0 6 -13
8 -30 6 -35 -5 -38 4 -9 33 13 13 17 25 12 30 -6 6 -16 2 -27 -10z"/>
<path d="M2939 2960 c-29 -23 -5 -28 25 -5 25 19 46 19 46 0 0 -10 10 -15 30
-15 17 0 30 5 30 10 0 6 -9 10 -20 10 -11 0 -20 5 -20 10 0 18 -67 11 -91 -10z"/>
<path d="M1210 2774 c-13 -33 -13 -104 0 -104 6 0 10 18 10 39 0 22 4 51 10
65 6 17 6 26 0 26 -6 0 -15 -12 -20 -26z"/>
<path d="M1235 2688 c-10 -26 -10 -91 0 -94 6 -2 11 19 12 51 2 53 -3 68 -12
43z"/>
<path d="M1267 2633 c-11 -10 -8 -83 3 -83 6 0 10 20 10 45 0 46 -2 50 -13 38z"/>
<path d="M1300 2536 c0 -19 5 -38 10 -41 6 -4 10 10 10 34 0 23 -4 41 -10 41
-5 0 -10 -15 -10 -34z"/>
<path d="M1597 1753 c-11 -19 -18 -73 -9 -73 5 0 13 16 17 36 6 35 2 54 -8 37z"/>
<path d="M1480 1670 c0 -5 5 -10 10 -10 6 0 10 5 10 10 0 6 -4 10 -10 10 -5 0
-10 -4 -10 -10z"/>
<path d="M2650 1296 c0 -2 8 -10 18 -17 15 -13 16 -12 3 4 -13 16 -21 21 -21
13z"/>
<path d="M2318 1263 c7 -3 16 -2 19 1 4 3 -2 6 -13 5 -11 0 -14 -3 -6 -6z"/>
<path d="M2713 1263 c9 -2 25 -2 35 0 9 3 1 5 -18 5 -19 0 -27 -2 -17 -5z"/>
<path d="M2498 1233 c-29 -7 -21 -42 12 -61 23 -13 30 -23 27 -39 -3 -18 0
-23 17 -22 11 0 15 3 9 6 -23 9 -14 38 17 55 17 9 30 24 30 33 0 26 -61 42
-112 28z"/>
<path d="M2480 1100 c-18 -12 -2 -12 25 0 13 6 15 9 5 9 -8 0 -22 -4 -30 -9z"/>
</g>
</svg>
